<?xml version="1.0" encoding="utf-8"?>
<!-- Generator: Adobe Illustrator 19.0.0, SVG Export Plug-In . SVG Version: 6.00 Build 0)  -->
<svg version="1.0" id="Layer_1" xmlns="http://www.w3.org/2000/svg" xmlns:xlink="http://www.w3.org/1999/xlink" x="0px" y="0px"
	 viewBox="0 0 512 362" style="enable-background:new 0 0 512 362;" xml:space="preserve">
<style type="text/css">
	.st0{fill:#0000FF;}
</style>
<path id="XMLID_2_" class="st0" d="M420.5,271.4c18.1,2.3,27.7-12.2,31.5-28.6c5.2-22.9-4.7-46.8-19.3-64.3c-2.8-3.3-5.5-6.6-8-9.7
	c-8.6-11.1-11.5-29.2-10-43.1c2.1-20.3,15.3-42,35-50c16.1-6.6,38.4-7.2,46.9-25.1c1.6-3.3,2.1-6.3,1.8-9.1
	c-1.7-16.6-32.5-23.9-45.4-24.4c-24.7-1-49.3,2.2-74,3.3c-44.7,2.1-133.3,17.2-177.1,26.7C156.5,57,74.2,77.9,36.2,94
	c-5.4,2.3-10.3,5.8-14.6,9.9c-7.9,7.5-12.8,19.6-0.7,24.2c27.4,10.5,89.5,7.2,89.5,7.2c-30.5,10.7-36.3,26.5-36.9,53
	c-0.5,19,5.9,38.9,23.7,47.1c44.3,20.2,71.2-44.4,112.4-47.2c-7.1,0.5-0.2,68,0.9,74.4c4.2,24.7,7.8,49.4,28.1,67.7
	c15.9,14.4,36.2,19.6,55.4,10.2c19.4-9.5,29.1-25.6,34.3-45.4c7.3-27.5,6.7-51,4.9-76C333.1,219.1,370.4,265.1,420.5,271.4"/>
</svg>
